# AST/ASF file generated using VICON BodyLanguage
# -----------------------------------------------
:version 1.10
:name VICON
:units
  mass 1.0
  length 0.45
  angle deg
:documentation
   .ast/.asf automatically generated from VICON data using
   VICON BodyBuilder and BodyLanguage model FoxedUp or BRILLIANT.MOD
:root
   order TX TY TZ RX RY RZ
   axis XYZ
   position 0 0 0  
   orientation 0 0 0 
:bonedata
  begin
     id 1 
     name lhipjoint
     direction 0.521452 -0.77106 0.36545 
     length 2.0933 
     axis 0 0 0  XYZ
  end
  begin
     id 2 
     name lfemur
     direction 0.34202 -0.939693 0  
     length 6.83441  
     axis 0 0 20  XYZ
    dof rx ry rz
    limits (-160.0 20.0)
           (-70.0 70.0)
           (-60.0 70.0)
  end
  begin
     id 3 
     name ltibia
     direction 0.34202 -0.939693 0   
     length 7.28749   
     axis 0 0 20   XYZ
    dof rx
    limits (-10.0 170.0)
  end
  begin
     id 4 
     name lfoot
     direction 0.100608 -0.276418 0.955757   
     length 1.52195   
     axis -90 7.62852e-016 20   XYZ
    dof rx rz
    limits (-45.0 90.0)
           (-70.0 20.0)
  end
  begin
     id 5 
     name ltoes
     direction 1.53558e-011 -4.21907e-011 1   
     length 0.770459   
     axis -90 7.62852e-016 20   XYZ
    dof rx
    limits (-90.0 20.0)
  end
  begin
     id 6 
     name rhipjoint
     direction -0.488071 -0.788702 0.373812   
     length 2.04648  
     axis 0 0 0  XYZ 
  end
  begin
     id 7 
     name rfemur
     direction -0.34202 -0.939693 0   
     length 6.92583   
     axis 0 0 -20   XYZ
    dof rx ry rz
    limits (-160.0 20.0)
           (-70.0 70.0)
           (-70.0 60.0)
  end
  begin
     id 8 
     name rtibia
     direction -0.34202 -0.939693 0   
     length 7.41043   
     axis 0 0 -20   XYZ
    dof rx
    limits (-10.0 170.0)
 end
 begin
     id 9 
     name rfoot
     direction -0.0784433 -0.215521 0.973343   
     length 1.67708  
     axis -90 -7.62852e-016 -20   XYZ
    dof rx rz
    limits (-45.0 90.0)
           (-20.0 70.0)
  end
  begin
     id 10 
     name rtoes
     direction -1.53551e-011 -4.21842e-011 1   
     length 0.849787   
     axis -90 -7.62852e-016 -20   XYZ
    dof rx
    limits (-90.0 20.0)
  end
  begin
     id 11 
     name lowerback
     direction -0.0122332 0.997575 -0.0685192   
     length 1.98724   
     axis 0 0 0   XYZ
    dof rx ry rz
    limits (-20.0 45.0)
           (-30.0 30.0)
           (-30.0 30.0)
  end
  begin
     id 12 
     name upperback
     direction 0.0182347 0.999724 -0.0148421   
     length 1.99029   
     axis 0 0 0   XYZ
    dof rx ry rz
    limits (-20.0 45.0)
           (-30.0 30.0)
           (-30.0 30.0)
  end
  begin
     id 13 
     name thorax
     direction 0.0242908 0.99956 0.0170184   
     length 1.99573   
     axis 0 0 0   XYZ
    dof rx ry rz
    limits (-20.0 45.0)
           (-30.0 30.0)
           (-30.0 30.0)
  end
  begin
     id 14 
     name lowerneck
     direction 0.0654488 0.985533 0.156338   
     length 1.4285   
     axis 0 0 0   XYZ
    dof rx ry rz
    limits (-20.0 45.0)
           (-30.0 30.0)
           (-30.0 30.0)
  end
  begin
     id 15 
     name upperneck
     direction -0.02953 0.998556 -0.0448842   
     length 1.44709   
     axis 0 0 0   XYZ
    dof rx ry rz
    limits (-20.0 45.0)
           (-30.0 30.0)
           (-30.0 30.0)
  end
  begin
     id 16
     name head
     direction -0.0155588 0.999386 -0.0314063  
     length 1.44689  
     axis 0 0 0   XYZ
    dof rx ry rz
    limits (-20.0 45.0)
           (-30.0 30.0)
           (-30.0 30.0)
  end
  begin
     id 17 
     name lclavicle
     direction 0.968229 0.236071 -0.0824755  
     length 3.60593  
     axis 0 0 0   XYZ
    dof ry rz
    limits (-20.0 10.0)
           (0.0 20.0)
  end
  begin
     id 18 
     name lhumerus
     direction 1 -4.48968e-011 7.8138e-029   
     length 5.06035   
     axis 180 -30 -90   XYZ
    dof rx ry rz
    limits (-60.0 90.0)
           (-90.0 90.0)
           (-90.0 90.0)
  end
  begin
     id 19
     name lradius
     direction 1 -4.48967e-011 9.02887e-028   
     length 3.1478   
     axis 180 -30 -90   XYZ
    dof rx
    limits (-10.0 170.0)
  end
  begin
     id 20
     name lwrist
     direction 1 -4.48961e-011 7.20928e-028   
     length 1.5739   
     axis -5.52449e-016 90 90   XYZ
    dof ry
    limits (-180.0 0.0)
 end
  begin
     id 21 
     name lhand
     direction 1 -4.48972e-011 1.44186e-027   
     length 0.606747   
     axis -9.20027e-016 90 90   XYZ
    dof rx rz
    limits (-90.0 90.0)
           (-45.0 45.0)
  end
  begin
     id 22 
     name lfingers
     direction 1 -4.48943e-011 2.88371e-027   
     length 0.489175   
     axis -1.84005e-015 90 90   XYZ
    dof rx
    limits (0.0 90.0)
  end
  begin
     id 23
     name lthumb
     direction 0.707107 -6.34917e-011 0.707107   
     length 0.70236   
     axis -90 45 2.85299e-015   XYZ
    dof rx rz
    limits (-45.0 45.0)
           (-45.0 45.0)
  end
  begin
     id 24 
     name rclavicle
     direction -0.978165 0.207816 0.0022268   
     length 3.35425  
     axis 0 0 0   XYZ 
    dof ry rz
    limits (-10.0 20.0)
           (-20.0 0.0)
  end
  begin
     id 25 
     name rhumerus
     direction -1 -4.48964e-011 -4.02159e-027  
     length 5.12273   
     axis 180 30 90   XYZ
    dof rx ry rz
    limits (-90.0 60.0)
           (-90.0 90.0)
           (-90.0 90.0)
  end
  begin
     id 26 
     name rradius
     direction -1 -4.48966e-011 1.62746e-027   
     length 3.422   
     axis 180 30 90   XYZ
    dof rx
    limits (-10.0 170.0)
  end
  begin
     id 27 
     name rwrist
     direction -1 -4.4896e-011 7.20928e-028   
     length 1.711   
     axis -5.52449e-016 -90 -90   XYZ
    dof ry
    limits (-180.0 0.0)
  end
  begin
     id 28
     name rhand
     direction -1 -4.48979e-011 1.44186e-027   
     length 0.704599   
     axis -9.20027e-016 -90 -90   XYZ
    dof rx rz
    limits (-90.0 90.0)
           (-45.0 45.0)
  end
  begin
     id 29
     name rfingers
     direction -1 -4.48962e-011 2.88371e-027   
     length 0.568066   
     axis -1.84005e-015 -90 -90   XYZ
    dof rx
    limits (0.0 90.0)
  end
  begin
     id 30
     name rthumb
     direction -0.707107 -6.34949e-011 0.707107   
     length 0.815633   
     axis -90 -45 -2.85299e-015   XYZ
    dof rx rz
    limits (-45.0 45.0)
           (-45.0 45.0)
  end
:hierarchy
  begin
    root lhipjoint rhipjoint lowerback
    lhipjoint lfemur
    lfemur ltibia
    ltibia lfoot
    lfoot ltoes
    rhipjoint rfemur
    rfemur rtibia
    rtibia rfoot
    rfoot rtoes
    lowerback upperback
    upperback thorax
    thorax lowerneck lclavicle rclavicle
    lowerneck upperneck
    upperneck head
    lclavicle lhumerus
    lhumerus lradius
    lradius lwrist
    lwrist lhand lthumb
    lhand lfingers
    rclavicle rhumerus
    rhumerus rradius
    rradius rwrist
    rwrist rhand rthumb
    rhand rfingers
  end

#!OML:ASF E:\id_vita\Project 1\Capture day 1\Session 1\Male1.ASF
:FULLY-SPECIFIED
:DEGREES
224
root 25.1136 15.9694 3.30472 248.79 -81.4929 -243.007
lowerback -1.77583 -5.43996 -8.96752
upperback 0.961187 -7.02959 -1.27531
thorax 2.90712 -3.66106 3.29357
lowerneck -4.35561 -0.633584 0.881419
upperneck -5.94081 -1.0749 -1.40271
head -1.11415 -0.604139 -0.57682
rclavicle -6.37105e-014 9.24349e-015
rhumerus -37.1475 -19.5409 -72.9149
rradius 17.14
rwrist 16.2237
rhand -19.8238 36.2065
rfingers 7.12502
rthumb 6.50996 6.32653
lclavicle -6.37105e-014 9.24349e-015
lhumerus -9.48016 2.06802 83.2679
lradius 40.5812
lwrist 6.92289
lhand -14.6419 44.1638
lfingers 7.12502
lthumb 11.5101 73.8278
rfemur -34.8013 5.24052 9.62844
rtibia 19.0676
rfoot -8.28044 -11.0774
rtoes 3.17039
lfemur 6.30975 2.48702 -31.8073
ltibia 14.8145
lfoot -18.4959 -4.88251
ltoes 41.1902
225
root 24.9712 15.9538 3.28454 249.606 -81.6184 -243.791
lowerback -1.44935 -5.45816 -8.88329
upperback 0.746548 -7.10288 -1.1913
thorax 2.5091 -3.67625 3.37779
lowerneck -4.32281 -0.699032 0.901465
upperneck -6.03076 -1.1735 -1.57242
head -1.1506 -0.653138 -0.632836
rclavicle 2.01021e-014 -5.76476e-015
rhumerus -37.621 -19.6949 -72.4587
rradius 17.1081
rwrist 16.4504
rhand -19.9286 36.3138
rfingers 7.12502
rthumb 6.40876 6.4308
lclavicle 2.01021e-014 -5.76476e-015
lhumerus -9.38068 2.0925 83.4116
lradius 40.236
lwrist 6.79648
lhand -14.775 44.3066
lfingers 7.12502
lthumb 11.3817 73.9777
rfemur -34.7535 4.46823 10.1075
rtibia 19.3453
rfoot -9.86861 -10.2442
rtoes 7.38279
lfemur 6.71741 2.14672 -31.6792
ltibia 15.065
lfoot -18.3655 -4.82932
ltoes 41.064
226
root 24.8234 15.9348 3.2644 249.735 -81.7539 -243.915
lowerback -1.41953 -5.47115 -8.70716
upperback 0.749966 -7.12619 -1.15018
thorax 2.48244 -3.68436 3.32666
lowerneck -4.76082 -0.541581 0.386747
upperneck -5.67728 -0.928507 -1.28219
head -0.95968 -0.52437 -0.458137
rclavicle -6.07163e-014 2.60408e-014
rhumerus -37.7475 -20.0231 -72.1849
rradius 17.0206
rwrist 16.7613
rhand -19.9006 36.3784
rfingers 7.12502
rthumb 6.4358 6.49614
lclavicle -6.07163e-014 2.60408e-014
lhumerus -9.10232 2.1095 83.4687
lradius 39.9093
lwrist 6.70561
lhand -14.7348 44.8581
lfingers 7.12502
lthumb 11.4205 74.527
rfemur -34.6744 3.97888 10.5683
rtibia 19.858
rfoot -8.72462 -9.42976
rtoes 5.12618
lfemur 7.01459 1.90935 -31.4981
ltibia 15.5951
lfoot -18.2746 -4.84315
ltoes 41.1309
227
root 24.6695 15.9217 3.24074 249.506 -81.9431 -243.756
lowerback -1.77419 -5.47255 -8.53937
upperback 1.06335 -7.07751 -1.10199
thorax 2.98857 -3.68316 3.23096
lowerneck -4.94233 -0.655453 0.533383
upperneck -6.22482 -1.12214 -1.44829
head -1.10413 -0.631569 -0.53484
rclavicle 2.09345e-014 -2.01766e-014
rhumerus -37.4907 -20.7194 -71.9276
rradius 16.8161
rwrist 17.2041
rhand -19.7667 36.6087
rfingers 7.12502
rthumb 6.56506 6.73046
lclavicle 2.09345e-014 -2.01766e-014
lhumerus -8.44386 2.37594 83.6019
lradius 39.3993
lwrist 6.32565
lhand -14.5404 45.2038
lfingers 7.12502
lthumb 11.608 74.8623
rfemur -34.4356 3.64923 11.0931
rtibia 20.5611
rfoot -8.21837 -8.55869
rtoes 5.90912
lfemur 7.30657 1.83197 -31.1852
ltibia 16.3179
lfoot -18.2344 -4.90516
ltoes 41.4886
228
root 24.5162 15.9122 3.21347 249.675 -82.2209 -243.956
lowerback -1.6452 -5.49172 -8.36941
upperback 0.966827 -7.12485 -0.970728
thorax 2.81698 -3.69569 3.29063
lowerneck -4.84914 -0.72579 0.552463
upperneck -6.41153 -1.23191 -1.62642
head -1.18088 -0.686468 -0.593169
rclavicle 1.10562e-013 -3.06128e-014
rhumerus -37.8337 -20.79 -71.5956
rradius 16.771
rwrist 17.2573
rhand -19.5583 36.8678
rfingers 7.12502
rthumb 6.76625 6.99589
lclavicle 1.10562e-013 -3.06128e-014
lhumerus -8.45032 2.75358 83.8201
lradius 38.9022
lwrist 5.85615
lhand -14.497 45.3177
lfingers 7.12502
lthumb 11.6499 74.9738
rfemur -34.2221 3.03073 11.839
rtibia 21.49
rfoot -7.73515 -7.58088
rtoes 4.71303
lfemur 7.6118 1.74853 -30.764
ltibia 16.9754
lfoot -17.9808 -5.05548
ltoes 41.7874
229
root 24.3614 15.9 3.18885 249.729 -82.498 -243.981
lowerback -1.55434 -5.53046 -8.05546
upperback 0.839156 -7.19824 -0.917883
thorax 2.60912 -3.71674 3.18897
lowerneck -4.85996 -0.714385 0.408978
upperneck -6.39594 -1.2063 -1.52101
head -1.17187 -0.671447 -0.536707
rclavicle 3.35635e-014 -2.6339e-015
rhumerus -38.1698 -20.6011 -71.5518
rradius 16.8181
rwrist 17.2546
rhand -19.6603 36.4439
rfingers 7.12502
rthumb 6.66771 6.56886
lclavicle 3.35635e-014 -2.6339e-015
lhumerus -8.53397 2.94904 83.8444
lradius 38.4377
lwrist 5.61827
lhand -14.6998 45.2356
lfingers 7.12502
lthumb 11.4543 74.9027
rfemur -34.1948 2.16835 12.6842
rtibia 22.586
rfoot -7.04074 -6.37375
rtoes 3.16839
lfemur 7.97428 1.57759 -30.3819
ltibia 17.4688
lfoot -17.5094 -5.18085
ltoes 39.9459
230
root 24.2023 15.8981 3.16586 249.335 -82.6551 -243.606
lowerback -1.39523 -5.52943 -7.8407
upperback 0.710368 -7.22233 -0.875987
thorax 2.36706 -3.71457 3.14049
lowerneck -5.12576 -0.716965 0.287337
upperneck -6.1171 -1.19888 -1.55272
head -1.04036 -0.665756 -0.527237
rclavicle 8.04457e-014 5.26779e-015
rhumerus -38.4873 -20.5688 -71.38
rradius 16.7657
rwrist 17.4473
rhand -19.9096 35.9095
rfingers 7.12502
rthumb 6.42708 6.02706
lclavicle 8.04457e-014 5.26779e-015
lhumerus -8.72751 3.34844 83.9524
lradius 37.9679
lwrist 5.28189
lhand -14.8601 45.0703
lfingers 7.12502
lthumb 11.2996 74.7459
rfemur -34.3034 1.51105 13.3061
rtibia 23.7364
rfoot -6.0752 -5.24234
rtoes 4.23714
lfemur 8.43885 1.40677 -30.1299
ltibia 17.8192
lfoot -16.9412 -5.12595
ltoes 39.8854
231
root 24.0403 15.9093 3.14155 249.683 -82.7383 -243.998
lowerback -1.42537 -5.51999 -7.73888
upperback 0.724945 -7.20806 -0.889343
thorax 2.38297 -3.70674 3.06897
lowerneck -5.23628 -0.716236 0.149781
upperneck -6.13179 -1.19622 -1.5715
head -1.02596 -0.663283 -0.510627
rclavicle 1.39975e-013 -6.90777e-015
rhumerus -38.634 -21.1052 -71.0165
rradius 16.4981
rwrist 17.9417
rhand -19.8963 36.1732
rfingers 7.12502
rthumb 6.43989 6.29109
lclavicle 1.39975e-013 -6.90777e-015
lhumerus -8.70841 3.72247 84.0854
lradius 37.3585
lwrist 4.90513
lhand -14.9491 44.8562
lfingers 7.12502
lthumb 11.2138 74.5365
rfemur -34.4627 1.07076 13.6245
rtibia 24.8689
rfoot -5.03674 -4.23553
rtoes 5.48203
lfemur 8.91968 1.18165 -29.9719
ltibia 18.1052
lfoot -16.1739 -5.09695
ltoes 40.1224
232
root 23.8738 15.917 3.1143 250.23 -82.9135 -244.616
lowerback -1.42954 -5.56827 -7.64165
upperback 0.7229 -7.27366 -0.836196
thorax 2.3854 -3.73806 3.06619
lowerneck -5.08361 -0.851592 0.477194
upperneck -6.67244 -1.42401 -1.77844
head -1.22707 -0.786172 -0.629181
rclavicle 2.73329e-014 7.25564e-015
rhumerus -38.7119 -21.2548 -70.7955
rradius 16.2805
rwrist 18.2331
rhand -19.7579 36.2793
rfingers 7.12502
rthumb 6.57353 6.40132
lclavicle 2.73329e-014 7.25564e-015
lhumerus -8.73182 4.1451 84.174
lradius 36.6798
lwrist 4.61784
lhand -14.9641 44.8029
lfingers 7.12502
lthumb 11.1994 74.484
rfemur -34.4847 0.845667 13.8877
rtibia 25.8851
rfoot -4.28138 -3.3906
rtoes 4.46569
lfemur 9.37967 0.924497 -29.712
ltibia 18.5273
lfoot -15.3416 -5.18265
ltoes 40.2395
233
root 23.7049 15.9135 3.08432 248.238 -83.2334 -242.746
lowerback -1.61172 -5.53153 -7.28704
upperback 0.854174 -7.20942 -0.764704
thorax 2.5818 -3.70964 2.92479
lowerneck -5.22559 -0.856076 0.431848
upperneck -6.62524 -1.42246 -1.64163
head -1.18694 -0.786943 -0.579867
rclavicle -2.09345e-014 1.70955e-014
rhumerus -38.6408 -21.3105 -70.8098
rradius 16.1434
rwrist 18.4467
rhand -19.7288 35.7889
rfingers 7.12502
rthumb 6.60167 5.9118
lclavicle -2.09345e-014 1.70955e-014
lhumerus -8.61999 4.62114 84.2567
lradius 35.8958
lwrist 4.27017
lhand -14.9536 44.9455
lfingers 7.12502
lthumb 11.2095 74.626
rfemur -34.3565 1.0319 14.3589
rtibia 26.7567
rfoot -3.88059 -2.80782
rtoes 1.31528
lfemur 9.7657 0.852885 -29.1996
ltibia 19.2307
lfoot -14.583 -5.11953
ltoes 40.1999
234
root 23.5376 15.9072 3.05569 244.172 -83.5232 -238.797
lowerback -1.64858 -5.42393 -6.82218
upperback 0.887805 -7.07181 -0.661513
thorax 2.5785 -3.63462 2.78343
lowerneck -5.42837 -0.790471 0.0860546
upperneck -6.37273 -1.30687 -1.52387
head -1.06958 -0.72283 -0.486669
rclavicle -3.44581e-014 6.11263e-015
rhumerus -38.6707 -21.13 -70.8659
rradius 16.0441
rwrist 18.4507
rhand -19.7695 35.6279
rfingers 7.12502
rthumb 6.56237 5.74961
lclavicle -3.44581e-014 6.11263e-015
lhumerus -8.75481 5.17538 84.388
lradius 35.1238
lwrist 3.86397
lhand -15.0942 44.5813
lfingers 7.12502
lthumb 11.0739 74.2692
rfemur -34.2561 1.31627 14.9359
rtibia 27.5751
rfoot -3.72516 -1.83202
rtoes -0.603158
lfemur 9.95091 1.05625 -28.6067
ltibia 20.2472
lfoot -13.7598 -4.86977
ltoes 40.0358
